<svg xmlns="http://www.w3.org/2000/svg" viewBox="0 0 199 257"><defs><style>.a{isolation:isolate;}.b,.k{fill:#e8d4d4;}.c{stroke:#000;stroke-width:0.62px;}.c,.l{stroke-miterlimit:10;}.d{font-size:8.04px;letter-spacing:0.21em;}.d,.g{font-family:Raleway-Regular, Raleway;}.e,.f{letter-spacing:0.21em;}.f{font-family:Raleway-Bold, Raleway;font-weight:700;}.g{font-size:8.04px;letter-spacing:0.21em;}.h,.i,.j{fill:#b5a5a5;}.h{opacity:0.78;mix-blend-mode:color-burn;}.i{opacity:0.36;mix-blend-mode:multiply;}.j{opacity:0.23;mix-blend-mode:darken;}.k{opacity:0.71;mix-blend-mode:overlay;}.l{fill:none;stroke:#fff;stroke-width:0.57px;}</style></defs><title>S|11 Final Logos</title><g class="a"><polygon class="b" points="48.95 95.2 48.95 144.99 93.04 169.89 135.2 144.99 135.2 95.2 93.04 70.3 48.95 95.2"/><polyline class="b" points="48.95 95.2 58.13 107.65 70.52 138.05 48.95 144.99"/><polyline class="b" points="93.04 70.3 58.13 107.65 48.95 144.99"/><line class="b" x1="93.04" y1="169.89" x2="70.51" y2="138.05"/><line class="b" x1="135.2" y1="95.2" x2="123.22" y2="151.91"/><path class="c" d="M83.47,114.42a5.14,5.14,0,0,0-2-1.41,7.18,7.18,0,0,0-2.57-.41,5.9,5.9,0,0,0-3.83,1,3.33,3.33,0,0,0-1.2,2.69,3,3,0,0,0,.3,1.41,2.45,2.45,0,0,0,.9,1,5.41,5.41,0,0,0,1.56.67c.64.18,1.4.36,2.29.55s1.72.39,2.45.6a7.21,7.21,0,0,1,1.87.83,3.39,3.39,0,0,1,1.62,3.1,4,4,0,0,1-.41,1.85,3.75,3.75,0,0,1-1.18,1.33,5.63,5.63,0,0,1-1.86.8,10,10,0,0,1-2.42.27,9.62,9.62,0,0,1-3.57-.62,9,9,0,0,1-3-1.9l.49-.58a7.8,7.8,0,0,0,2.67,1.79A8.78,8.78,0,0,0,79,128a6.8,6.8,0,0,0,3.68-.85A2.88,2.88,0,0,0,84,124.51a3.14,3.14,0,0,0-.33-1.5,2.76,2.76,0,0,0-1-1.05,6.93,6.93,0,0,0-1.68-.75q-1-.31-2.4-.6c-.9-.19-1.7-.38-2.39-.58a6.52,6.52,0,0,1-1.76-.77,3.17,3.17,0,0,1-1.07-1.15,3.6,3.6,0,0,1-.36-1.7,4.38,4.38,0,0,1,.42-2A4,4,0,0,1,74.65,113a5.56,5.56,0,0,1,1.83-.88,8.86,8.86,0,0,1,2.38-.3,7.88,7.88,0,0,1,2.83.47,6.25,6.25,0,0,1,2.22,1.49Z"/><rect x="103.29" y="111.58" width="1.43" height="17.28"/><rect x="115.05" y="111.58" width="1.43" height="17.28"/><text class="d" transform="matrix(0.86, -0.5, 0.5, 0.86, 100.25, 182.59)">S<tspan class="e" x="6.57" y="0">TUDIO </tspan><tspan class="f" x="43.77" y="0">II</tspan></text><text class="g" transform="translate(149.93 143.23) rotate(-90.14)">HEALING</text><polygon class="h" points="92.83 70.94 92.83 169.23 70.38 138.04 58.03 107.82 92.83 70.94"/><polygon class="i" points="70.38 138.04 92.35 169.07 49.21 144.86 70.38 138.04"/><polygon class="j" points="58.03 107.82 70.38 138.04 49.21 144.86 58.03 107.82"/><polygon class="i" points="134.84 97.23 134.84 144.86 123.46 151.59 134.84 97.23"/><polygon class="k" points="91.81 71.2 58.03 107.82 49.16 95.47 91.81 71.2"/><polygon class="l" points="48.95 95.2 48.95 144.99 93.04 169.89 135.2 144.99 135.2 95.2 93.04 70.3 48.95 95.2"/><polyline class="l" points="48.95 95.2 58.13 107.65 70.52 138.05 48.95 144.99"/><polyline class="l" points="70.52 138.05 93.04 169.89 93.04 70.3 58.13 107.65 48.95 144.99"/><line class="l" x1="135.2" y1="95.2" x2="123.22" y2="151.91"/></g></svg>